<svg xmlns="http://www.w3.org/2000/svg" viewBox="0 0 480 230" width="440" role="img"><defs><marker id="arr" viewBox="0 0 10 10" refX="9" refY="5" markerWidth="7" markerHeight="7" orient="auto-start-reverse"><path d="M0,0 L10,5 L0,10 z" fill="currentColor"/></marker></defs>
<g fill="none" stroke="currentColor" stroke-width="1.4">
  <circle cx="90" cy="60" r="17"/><circle cx="330" cy="60" r="17"/>
  <circle cx="330" cy="170" r="17"/><circle cx="90" cy="170" r="17"/>
  <line x1="40" y1="60" x2="70" y2="60" marker-end="url(#arr)"/>
  <line x1="108" y1="60" x2="310" y2="60" marker-end="url(#arr)"/>
  <line x1="330" y1="79" x2="330" y2="150" marker-end="url(#arr)"/>
  <line x1="311" y1="176" x2="110" y2="176" marker-end="url(#arr)"/>
  <line x1="90" y1="150" x2="90" y2="80" marker-end="url(#arr)"/>
  <path d="M 316,46 C 300,15 360,15 344,46" marker-end="url(#arr)"/>
  <path d="M 314,160 C 240,120 170,120 104,158" marker-end="url(#arr)"/>
</g>
<g font-size="13" font-style="italic" fill="currentColor">
  <text x="90" y="64" text-anchor="middle">z₁</text><text x="330" y="64" text-anchor="middle">z₂</text>
  <text x="330" y="174" text-anchor="middle">z₃</text><text x="90" y="174" text-anchor="middle">z₄</text>
  <text x="210" y="50" text-anchor="middle">ũ₁</text>
  <text x="352" y="120" text-anchor="middle">ũ₂</text>
  <text x="210" y="196" text-anchor="middle">ũ₁</text>
  <text x="70" y="120" text-anchor="middle">ũ₃</text>
  <text x="330" y="12" text-anchor="middle">ũ₃</text>
  <text x="210" y="128" text-anchor="middle">ũ₂</text>
</g></svg>
