<svg xmlns="http://www.w3.org/2000/svg" viewBox="0 0 460 210" width="440" role="img"><defs><marker id="arr" viewBox="0 0 10 10" refX="9" refY="5" markerWidth="7" markerHeight="7" orient="auto-start-reverse"><path d="M0,0 L10,5 L0,10 z" fill="currentColor"/></marker></defs>
<g fill="none" stroke="currentColor" stroke-width="1.4">
  <circle cx="230" cy="60" r="17"/><circle cx="110" cy="160" r="17"/><circle cx="350" cy="160" r="17"/>
  <line x1="185" y1="60" x2="211" y2="60" marker-end="url(#arr)"/>
  <path d="M 222,44 C 214,18 246,18 238,44" marker-end="url(#arr)"/>
  <path d="M 216,71 C 180,100 155,120 126,147" marker-end="url(#arr)"/>
  <path d="M 130,150 C 160,124 185,104 219,76" marker-end="url(#arr)"/>
  <line x1="244" y1="70" x2="336" y2="150" marker-end="url(#arr)"/>
  <line x1="127" y1="160" x2="331" y2="160" marker-end="url(#arr)"/>
  <path d="M 366,152 C 392,144 392,176 366,168" marker-end="url(#arr)"/>
</g>
<g font-size="13" font-style="italic" fill="currentColor">
  <text x="230" y="64" text-anchor="middle">z₂</text>
  <text x="110" y="164" text-anchor="middle">z₁</text>
  <text x="350" y="164" text-anchor="middle">z₃</text>
  <text x="230" y="14" text-anchor="middle">ũ₁ / ỹ₂</text>
  <text x="128" y="100" text-anchor="middle">ũ₀ / ỹ₂</text>
  <text x="210" y="122" text-anchor="middle">ũ₁ / ỹ₀</text>
  <text x="320" y="105" text-anchor="middle">ũ₂ / ỹ₀</text>
  <text x="229" y="180" text-anchor="middle">ũ₀ / ỹ₁</text>
  <text x="428" y="164" text-anchor="middle">ũ₀ / ỹ₁</text>
</g></svg>
