<svg xmlns="http://www.w3.org/2000/svg" viewBox="0 0 460 130" width="420" role="img"><defs><marker id="arr" viewBox="0 0 10 10" refX="9" refY="5" markerWidth="7" markerHeight="7" orient="auto-start-reverse"><path d="M0,0 L10,5 L0,10 z" fill="currentColor"/></marker></defs>
<g fill="none" stroke="currentColor" stroke-width="1.4">
  <circle cx="90" cy="65" r="22"/><circle cx="230" cy="65" r="22"/><circle cx="370" cy="65" r="22"/>
  <line x1="40" y1="65" x2="66" y2="65" marker-end="url(#arr)"/>
  <line x1="113" y1="58" x2="206" y2="58" marker-end="url(#arr)"/>
  <line x1="253" y1="58" x2="346" y2="58" marker-end="url(#arr)"/>
  <path d="M 352,82 C 300,120 160,120 106,84" marker-end="url(#arr)"/>
  <path d="M 216,46 C 208,20 252,20 244,46" marker-end="url(#arr)"/>
</g>
<g font-size="12" fill="currentColor">
  <text x="90" y="62" text-anchor="middle" font-style="italic">z₁</text><text x="90" y="76" text-anchor="middle">/ ỹ₀</text>
  <text x="230" y="62" text-anchor="middle" font-style="italic">z₂</text><text x="230" y="76" text-anchor="middle">/ ỹ₁</text>
  <text x="370" y="62" text-anchor="middle" font-style="italic">z₃</text><text x="370" y="76" text-anchor="middle">/ ỹ₂</text>
  <text x="159" y="50" text-anchor="middle" font-style="italic">ũ₁</text>
  <text x="299" y="50" text-anchor="middle" font-style="italic">ũ₁</text>
  <text x="230" y="122" text-anchor="middle" font-style="italic">ũ₂</text>
  <text x="230" y="16" text-anchor="middle" font-style="italic">ũ₂</text>
</g></svg>
