<svg xmlns="http://www.w3.org/2000/svg" viewBox="0 0 640 180" width="620" role="img"><defs><marker id="arr" viewBox="0 0 10 10" refX="9" refY="5" markerWidth="7" markerHeight="7" orient="auto-start-reverse"><path d="M0,0 L10,5 L0,10 z" fill="currentColor"/></marker></defs>
<g fill="none" stroke="currentColor" stroke-width="1.3">
  <circle cx="60" cy="60" r="8"/><circle cx="140" cy="60" r="8"/><circle cx="220" cy="60" r="8"/><circle cx="300" cy="60" r="8"/>
  <circle cx="380" cy="60" r="8"/><circle cx="460" cy="60" r="8"/><circle cx="540" cy="60" r="8"/><circle cx="610" cy="60" r="8"/>
  <line x1="69" y1="60" x2="130" y2="60" marker-end="url(#arr)"/><line x1="149" y1="60" x2="210" y2="60" marker-end="url(#arr)"/>
  <line x1="229" y1="60" x2="290" y2="60" marker-end="url(#arr)"/><line x1="309" y1="60" x2="370" y2="60" marker-end="url(#arr)"/>
  <line x1="389" y1="60" x2="450" y2="60" marker-end="url(#arr)"/><line x1="469" y1="60" x2="530" y2="60" marker-end="url(#arr)"/>
  <line x1="549" y1="60" x2="600" y2="60" marker-end="url(#arr)"/>
  <path d="M 616,66 C 634,85 634,110 616,126" marker-end="url(#arr)"/>
  <circle cx="610" cy="132" r="8"/><circle cx="530" cy="132" r="8"/><circle cx="450" cy="132" r="8"/>
  <circle cx="370" cy="132" r="8"/><circle cx="290" cy="132" r="8"/><circle cx="210" cy="132" r="8"/>
  <line x1="601" y1="132" x2="540" y2="132" marker-end="url(#arr)"/><line x1="521" y1="132" x2="460" y2="132" marker-end="url(#arr)"/>
  <line x1="441" y1="132" x2="380" y2="132" marker-end="url(#arr)"/><line x1="361" y1="132" x2="300" y2="132" marker-end="url(#arr)"/>
  <line x1="281" y1="132" x2="220" y2="132" marker-end="url(#arr)"/>
  <line x1="201" y1="132" x2="140" y2="132" stroke-dasharray="5,4" marker-end="url(#arr)"/>
</g>
<g font-size="12" font-style="italic" fill="currentColor">
  <text x="30" y="64" text-anchor="middle">π</text>
  <text x="60" y="40" text-anchor="middle">φ₁</text><text x="140" y="40" text-anchor="middle">φ₁</text>
  <text x="220" y="40" text-anchor="middle">φ₁, φ₂</text><text x="380" y="40" text-anchor="middle">φ₂</text>
  <text x="460" y="40" text-anchor="middle">φ₁</text><text x="540" y="40" text-anchor="middle">φ₂</text>
  <text x="610" y="40" text-anchor="middle">φ₁</text>
  <text x="610" y="158" text-anchor="middle">φ₁, φ₂</text>
  <text x="290" y="158" text-anchor="middle">φ₁</text><text x="370" y="158" text-anchor="middle">φ₂</text>
  <text x="450" y="158" text-anchor="middle">φ₁</text>
  <text x="120" y="158" text-anchor="middle">(φ₁ forever)</text>
</g></svg>
