<svg xmlns="http://www.w3.org/2000/svg" viewBox="0 0 560 200" width="500" role="img"><defs><marker id="arr" viewBox="0 0 10 10" refX="9" refY="5" markerWidth="7" markerHeight="7" orient="auto-start-reverse"><path d="M0,0 L10,5 L0,10 z" fill="currentColor"/></marker></defs>
<g fill="none" stroke="currentColor" stroke-width="1.4">
  <circle cx="90" cy="100" r="16"/>
  <circle cx="83" cy="95" r="3.5" fill="currentColor"/><circle cx="97" cy="105" r="3.5" fill="currentColor"/>
  <circle cx="310" cy="45" r="16"/>
  <circle cx="310" cy="155" r="16"/><circle cx="310" cy="155" r="3.5" fill="currentColor"/>
  <line x1="195" y1="30" x2="195" y2="65" stroke-width="5"/>
  <line x1="430" y1="85" x2="430" y2="120" stroke-width="5"/>
  <line x1="103" y1="90" x2="191" y2="55" marker-end="url(#arr)"/>
  <line x1="199" y1="46" x2="292" y2="45" marker-end="url(#arr)"/>
  <line x1="324" y1="52" x2="426" y2="95" marker-end="url(#arr)"/>
  <path d="M 428,122 C 390,170 200,175 106,112" marker-end="url(#arr)"/>
  <path d="M 322,144 C 355,120 395,112 424,107 " marker-end="url(#arr)" stroke-dasharray="0"/>
  <path d="M 426,116 C 395,128 360,140 328,152" marker-end="url(#arr)"/>
</g>
<g font-size="13" fill="currentColor">
  <text x="90" y="133" text-anchor="middle" font-style="italic">P₁</text>
  <text x="310" y="20" text-anchor="middle" font-style="italic">P₂</text>
  <text x="310" y="188" text-anchor="middle" font-style="italic">P₃</text>
  <text x="195" y="20" text-anchor="middle" font-style="italic">T₁</text>
  <text x="452" y="80" text-anchor="middle" font-style="italic">T₂</text>
  <text x="140" y="60" text-anchor="middle">2</text>
  <text x="255" y="150" text-anchor="middle">2</text>
</g></svg>
