<svg xmlns="http://www.w3.org/2000/svg" viewBox="0 0 660 320" width="620" role="img"><defs><marker id="arr" viewBox="0 0 10 10" refX="9" refY="5" markerWidth="7" markerHeight="7" orient="auto-start-reverse"><path d="M0,0 L10,5 L0,10 z" fill="currentColor"/></marker></defs>
<g fill="none" stroke="currentColor" stroke-width="1.4">
  <circle cx="150" cy="130" r="14"/><circle cx="150" cy="215" r="14"/>
  <circle cx="315" cy="115" r="14"/><circle cx="315" cy="215" r="14"/>
  <circle cx="480" cy="55" r="14"/>
  <circle cx="150" cy="130" r="4" fill="currentColor"/><circle cx="150" cy="215" r="4" fill="currentColor"/>
  <line x1="232" y1="150" x2="232" y2="185" stroke-width="5"/>
  <line x1="232" y1="255" x2="232" y2="290" stroke-width="5"/>
  <line x1="400" y1="35" x2="400" y2="70" stroke-width="5"/>
  <line x1="558" y1="35" x2="558" y2="70" stroke-width="5"/>
  <line x1="163" y1="137" x2="228" y2="164" marker-end="url(#arr)"/>
  <line x1="163" y1="208" x2="228" y2="180" marker-end="url(#arr)"/>
  <line x1="236" y1="163" x2="302" y2="122" marker-end="url(#arr)"/>
  <line x1="236" y1="181" x2="302" y2="209" marker-end="url(#arr)"/>
  <line x1="308" y1="228" x2="238" y2="268" marker-end="url(#arr)"/>
  <line x1="228" y1="268" x2="153" y2="231" marker-end="url(#arr)"/>
  <line x1="328" y1="107" x2="396" y2="60" marker-end="url(#arr)"/>
  <line x1="404" y1="52" x2="464" y2="52" marker-end="url(#arr)"/>
  <line x1="494" y1="55" x2="554" y2="55" marker-end="url(#arr)"/>
  <path d="M 560,38 L 560,12 L 150,12 L 150,114" marker-end="url(#arr)"/>
</g>
<g font-size="13" fill="currentColor">
  <text x="150" y="160" text-anchor="middle" font-style="italic">P₁</text>
  <text x="150" y="245" text-anchor="middle" font-style="italic">P₅</text>
  <text x="318" y="93" text-anchor="middle" font-style="italic">P₂</text>
  <text x="318" y="245" text-anchor="middle" font-style="italic">P₄</text>
  <text x="480" y="86" text-anchor="middle" font-style="italic">P₃</text>
  <text x="232" y="205" text-anchor="middle" font-style="italic">T₁</text>
  <text x="232" y="310" text-anchor="middle" font-style="italic">T₄</text>
  <text x="232" y="143" text-anchor="middle" font-style="italic">u₁</text>
  <text x="209" y="257" text-anchor="middle" font-style="italic">u₂</text>
  <text x="400" y="26" text-anchor="middle" font-style="italic">¬u₂</text>
  <text x="558" y="26" text-anchor="middle" font-style="italic">¬u₁</text>
  <text x="400" y="90" text-anchor="middle" font-style="italic">T₂</text>
  <text x="558" y="90" text-anchor="middle" font-style="italic">T₃</text>
</g></svg>
