<svg xmlns="http://www.w3.org/2000/svg" viewBox="0 0 620 330" width="580" role="img"><defs><marker id="arr" viewBox="0 0 10 10" refX="9" refY="5" markerWidth="7" markerHeight="7" orient="auto-start-reverse"><path d="M0,0 L10,5 L0,10 z" fill="currentColor"/></marker></defs>
<g fill="none" stroke="currentColor" stroke-width="1.4">
  <rect x="250" y="15" width="120" height="34" rx="9"/>
  <rect x="250" y="95" width="120" height="34" rx="9"/>
  <rect x="90" y="175" width="120" height="34" rx="9"/>
  <rect x="410" y="175" width="120" height="34" rx="9"/>
  <rect x="90" y="275" width="120" height="34" rx="9"/>
  <rect x="410" y="275" width="120" height="34" rx="9"/>
  <line x1="310" y1="49" x2="310" y2="92" marker-end="url(#arr)"/>
  <line x1="268" y1="129" x2="180" y2="172" marker-end="url(#arr)"/>
  <line x1="352" y1="129" x2="440" y2="172" marker-end="url(#arr)"/>
  <line x1="150" y1="209" x2="150" y2="272" marker-end="url(#arr)"/>
  <line x1="210" y1="203" x2="418" y2="278" marker-end="url(#arr)"/>
  <line x1="470" y1="209" x2="470" y2="272" marker-end="url(#arr)"/>
  <path d="M 92,290 C 20,240 30,80 246,33" marker-end="url(#arr)"/>
  <path d="M 532,290 C 600,240 590,80 374,33" marker-end="url(#arr)"/>
  <path d="M 120,175 C 130,110 190,60 246,40" marker-end="url(#arr)"/>
</g>
<g font-size="12.5" fill="currentColor">
  <text x="310" y="37" text-anchor="middle">{P₁, P₅}</text>
  <text x="310" y="117" text-anchor="middle">{P₂, P₄}</text>
  <text x="150" y="197" text-anchor="middle">{P₃, P₄}</text>
  <text x="470" y="197" text-anchor="middle">{P₂, P₅}</text>
  <text x="150" y="297" text-anchor="middle">{P₁, P₄}</text>
  <text x="470" y="297" text-anchor="middle">{P₃, P₅}</text>
  <text x="310" y="75" text-anchor="middle" font-style="italic">T₁ (u₁)</text>
  <text x="195" y="145" text-anchor="middle" font-style="italic">T₂ (¬u₂)</text>
  <text x="430" y="145" text-anchor="middle" font-style="italic">T₄ (u₂)</text>
  <text x="118" y="245" text-anchor="middle" font-style="italic">T₃ (¬u₁)</text>
  <text x="330" y="255" text-anchor="middle" font-style="italic">T₄ (u₂)</text>
  <text x="502" y="245" text-anchor="middle" font-style="italic">T₂ (¬u₂)</text>
  <text x="40" y="160" text-anchor="middle" font-style="italic">T₄</text>
  <text x="583" y="160" text-anchor="middle" font-style="italic">T₃</text>
  <text x="150" y="95" text-anchor="middle" font-style="italic">{T₃,T₄}</text>
</g></svg>
