<svg xmlns="http://www.w3.org/2000/svg" viewBox="0 0 560 190" width="520" role="img"><defs><marker id="arr" viewBox="0 0 10 10" refX="9" refY="5" markerWidth="7" markerHeight="7" orient="auto-start-reverse"><path d="M0,0 L10,5 L0,10 z" fill="currentColor"/></marker></defs>
<g fill="none" stroke="currentColor" stroke-width="1.4">
  <circle cx="80" cy="90" r="14"/><circle cx="80" cy="90" r="4" fill="currentColor"/>
  <circle cx="280" cy="40" r="14"/>
  <circle cx="280" cy="145" r="14"/>
  <line x1="175" y1="45" x2="175" y2="80" stroke-width="5"/>
  <line x1="385" y1="75" x2="385" y2="110" stroke-width="5"/>
  <line x1="175" y1="110" x2="175" y2="145" stroke-width="5"/>
  <line x1="92" y1="82" x2="171" y2="65" marker-end="url(#arr)"/>
  <line x1="179" y1="58" x2="264" y2="43" marker-end="url(#arr)"/>
  <line x1="293" y1="47" x2="381" y2="85" marker-end="url(#arr)"/>
  <line x1="381" y1="100" x2="296" y2="139" marker-end="url(#arr)"/>
  <line x1="264" y1="140" x2="179" y2="128" marker-end="url(#arr)"/>
  <line x1="171" y1="120" x2="93" y2="97" marker-end="url(#arr)"/>
</g>
<g font-size="13" fill="currentColor">
  <text x="80" y="120" text-anchor="middle" font-style="italic">P₁</text>
  <text x="280" y="18" text-anchor="middle" font-style="italic">P₂</text>
  <text x="280" y="172" text-anchor="middle" font-style="italic">P₃</text>
  <text x="160" y="34" text-anchor="middle" font-style="italic">T₁: u₁</text>
  <text x="415" y="66" text-anchor="middle" font-style="italic">T₂: u₂</text>
  <text x="150" y="168" text-anchor="middle" font-style="italic">T₃: ¬u₁</text>
</g></svg>
