<svg xmlns="http://www.w3.org/2000/svg" viewBox="0 0 640 220" width="580" role="img"><defs><marker id="arr" viewBox="0 0 10 10" refX="9" refY="5" markerWidth="7" markerHeight="7" orient="auto-start-reverse"><path d="M0,0 L10,5 L0,10 z" fill="currentColor"/></marker></defs>
<g stroke="currentColor" stroke-width=".5" opacity=".25">
  <line x1="50" y1="40" x2="620" y2="40"/><line x1="50" y1="140" x2="620" y2="140"/>
</g>
<g fill="none" stroke="currentColor" stroke-width="1.2">
  <line x1="50" y1="190" x2="630" y2="190" marker-end="url(#arr)"/>
  <line x1="50" y1="200" x2="50" y2="20" marker-end="url(#arr)"/>
</g>
<g fill="none" stroke="currentColor" stroke-width="2.2">
  <path d="M 50,140 Q 90,55 160,40"/>
  <path d="M 160,40 Q 200,125 270,140"/>
  <path d="M 270,140 Q 310,55 380,40"/>
  <path d="M 380,40 Q 420,125 490,140"/>
  <path d="M 490,140 Q 530,55 600,40"/>
</g>
<g stroke="currentColor" stroke-width=".8" stroke-dasharray="4,4" opacity=".6">
  <line x1="160" y1="40" x2="160" y2="190"/><line x1="270" y1="40" x2="270" y2="190"/>
  <line x1="380" y1="40" x2="380" y2="190"/>
</g>
<g font-size="11.5" fill="currentColor">
  <text x="30" y="44">25</text><text x="30" y="144">20</text>
  <text x="56" y="30" font-style="italic">T</text><text x="624" y="206" font-style="italic">t</text>
  <text x="160" y="206" text-anchor="middle">ln 2</text>
  <text x="270" y="206" text-anchor="middle">2 ln 2</text>
  <text x="380" y="206" text-anchor="middle">3 ln 2</text>
  <text x="105" y="100" font-size="10.5">on</text><text x="215" y="100" font-size="10.5">off</text>
  <text x="325" y="100" font-size="10.5">on</text><text x="435" y="100" font-size="10.5">off</text>
</g></svg>
