<svg xmlns="http://www.w3.org/2000/svg" viewBox="0 0 560 210" width="480" role="img"><defs><marker id="arr" viewBox="0 0 10 10" refX="9" refY="5" markerWidth="7" markerHeight="7" orient="auto-start-reverse"><path d="M0,0 L10,5 L0,10 z" fill="currentColor"/></marker></defs>
<g fill="none" stroke="currentColor" stroke-width="1.6">
  <path d="M 110,60 L 110,160 L 210,160 L 210,60"/>
  <path d="M 350,60 L 350,160 L 450,160 L 450,60"/>
  <line x1="160" y1="165" x2="160" y2="195" marker-end="url(#arr)"/>
  <line x1="400" y1="165" x2="400" y2="195" marker-end="url(#arr)"/>
  <line x1="280" y1="15" x2="280" y2="35"/>
  <path d="M 280,35 C 280,45 240,40 165,52" marker-end="url(#arr)"/>
  <path d="M 280,35 C 280,45 320,40 395,52" marker-end="url(#arr)" stroke-dasharray="5,4"/>
</g>
<g stroke="currentColor" stroke-width="1" opacity=".5">
  <line x1="112" y1="120" x2="208" y2="120"/><line x1="352" y1="120" x2="448" y2="120"/>
</g>
<g font-size="12.5" fill="currentColor">
  <text x="160" y="112" text-anchor="middle" font-style="italic">x₁</text>
  <text x="400" y="112" text-anchor="middle" font-style="italic">x₂</text>
  <text x="185" y="192" font-style="italic">v₁ = 1</text>
  <text x="425" y="192" font-style="italic">v₂ = 2</text>
  <text x="298" y="24" font-style="italic">w = 2.5</text>
  <text x="160" y="45" text-anchor="middle" font-size="11">(inflow on tank 1)</text>
</g></svg>
