<svg xmlns="http://www.w3.org/2000/svg" viewBox="0 0 1200 300" width="1200" height="300" role="img" aria-label="CPS Practice Exams">
  <defs>
    <linearGradient id="bg" x1="0" y1="0" x2="1" y2="1">
      <stop offset="0" stop-color="#0f172a"/>
      <stop offset="0.55" stop-color="#1e3a5f"/>
      <stop offset="1" stop-color="#2563eb"/>
    </linearGradient>
    <marker id="barr" viewBox="0 0 10 10" refX="9" refY="5" markerWidth="6" markerHeight="6" orient="auto">
      <path d="M0,0 L10,5 L0,10 z" fill="#93c5fd"/>
    </marker>
  </defs>
  <rect width="1200" height="300" fill="url(#bg)"/>
  <!-- decorative automaton -->
  <g fill="none" stroke="#93c5fd" stroke-width="2.5" opacity="0.55">
    <circle cx="905" cy="150" r="34"/>
    <circle cx="1060" cy="90" r="34"/>
    <circle cx="1060" cy="215" r="34"/>
    <path d="M 932,132 C 970,105 990,100 1023,102" marker-end="url(#barr)"/>
    <path d="M 1055,127 C 1048,155 1050,160 1055,178" marker-end="url(#barr)"/>
    <path d="M 1028,228 C 990,215 965,195 932,172" marker-end="url(#barr)"/>
    <path d="M 890,120 C 878,88 928,84 921,118" marker-end="url(#barr)"/>
  </g>
  <g fill="#93c5fd" opacity="0.8" font-family="Georgia, 'Times New Roman', serif" font-style="italic" font-size="21" text-anchor="middle">
    <text x="905" y="157">z₁</text><text x="1060" y="97">z₂</text><text x="1060" y="222">z₃</text>
  </g>
  <!-- decorative trajectory -->
  <g fill="none" stroke="#4ade80" stroke-width="3" opacity="0.65">
    <path d="M 60,255 Q 130,255 200,120 Q 235,190 270,255 Q 288,222 306,255 Q 315,240 324,255 Q 329,248 334,255 L 400,255"/>
  </g>
  <text x="60" y="122" font-family="-apple-system, 'Segoe UI', Helvetica, Arial, sans-serif" font-size="58" font-weight="700" fill="#f8fafc">CPS Practice Exams</text>
  <text x="60" y="168" font-family="-apple-system, 'Segoe UI', Helvetica, Arial, sans-serif" font-size="25" fill="#cbd5e1">Cyber-Physical Systems (TUM IN2305) — interactive exam prep</text>
  <text x="60" y="205" font-family="-apple-system, 'Segoe UI', Helvetica, Arial, sans-serif" font-size="19" fill="#94a3b8">Retake 2021 · Claude Exam 1 · KaTeX · solutions · formula sheet</text>
  <text x="1140" y="282" text-anchor="end" font-family="-apple-system, 'Segoe UI', Helvetica, Arial, sans-serif" font-size="15" fill="#93c5fd" opacity="0.9">✦ generated with Claude Code</text>
</svg>
